<svg xmlns="http://www.w3.org/2000/svg" viewBox="0 0 760 760">
  <style>
    path { fill: #1a1a1a; }
    @media (prefers-color-scheme: dark) { path { fill: #e8e6e1; } }
  </style>
  <g transform="translate(50,690) scale(1,-1)">
    <path d="M33 613Q31 613 31.0 619.0Q31 625 33 625L86 624Q130 622 156 622Q186 622 230 624L280 625Q283 625 283.0 619.0Q283 613 280 613Q247 613 231.5 607.0Q216 601 210.0 586.5Q204 572 204 542V330L401 530Q431 560 431 582Q431 597 415.5 605.0Q400 613 371 613Q369 613 369.0 619.0Q369 625 371 625L416 624Q460 622 496 622Q535 622 575 624L618 625Q621 625 621.0 619.0Q621 613 618 613Q574 613 521.5 589.5Q469 566 426 524L297 394L444 200Q512 107 547.0 68.5Q582 30 602.0 21.0Q622 12 656 12Q659 12 659.0 6.0Q659 0 656 0H544L506 -2Q492 -2 482.5 3.5Q473 9 461.0 23.5Q449 38 421 76L369 145L230 327L204 300V81Q204 50 209.5 36.0Q215 22 230.5 17.0Q246 12 280 12Q284 12 284.0 6.0Q284 0 280 0Q248 0 229 1L156 2L32 0Q30 0 30.0 6.0Q30 12 32 12Q66 12 81.5 17.0Q97 22 103.0 36.5Q109 51 109 81V544Q109 574 103.5 588.0Q98 602 82.0 607.5Q66 613 33 613Z"/>
  </g>
</svg>
